<?xml version="1.0" encoding="UTF-8"?>
<svg version="1.1" xmlns="http://www.w3.org/2000/svg" width="1024" height="1024">

<defs>
<linearGradient id="gradient">
<stop offset="0" stop-color="#A1FFCE" stop-opacity="1" />
<stop offset="1" stop-color="#FAFFD1" stop-opacity="1" />
</linearGradient>
</defs>
<path transform="translate(583,148)" fill="url(#gradient)" d="M0 0 C1.69600342 0.28883057 1.69600342 0.28883057 3.42626953 0.58349609 C10.66590277 1.85507951 17.838372 3.34731662 25 5 C25.9389209 5.21350098 26.8778418 5.42700195 27.84521484 5.64697266 C51.43067382 11.10985617 74.21394322 19.48096272 96 30 C96.88880859 30.42394043 97.77761719 30.84788086 98.69335938 31.28466797 C147.3944312 54.60426796 189.95850727 89.15952751 224 131 C225.15628906 132.41152344 225.15628906 132.41152344 226.3359375 133.8515625 C238.19986069 148.78985781 248.94550112 164.98934103 257.85888672 181.85888672 C259.14165112 184.26578527 260.46381036 186.64923158 261.78515625 189.03515625 C306.16091576 270.27603995 315.25449212 368.34965195 290 457 C285.04038551 473.70495099 279.27985542 490.1586472 272 506 C271.58637207 506.9079834 271.17274414 507.8159668 270.74658203 508.75146484 C258.61752579 535.22090326 243.49886656 560.44490357 225 583 C224.56913086 583.52561523 224.13826172 584.05123047 223.69433594 584.59277344 C214.16478533 596.16388126 204.00773783 607.08359549 193.45254517 617.72268677 C192.04273377 619.1444053 190.63690321 620.57006788 189.23120117 621.99584961 C183.13190043 628.10278334 176.74551766 633.62363179 170 639 C168.30958976 640.41319281 166.62173066 641.82944807 164.9375 643.25 C95.77215491 699.66145167 9.2909285 724.63804989 -95.29516602 722.23046875 C-161.86921088 715.12351008 -225.6218577 690.4892738 -279 650 C-279.63228516 649.5246582 -280.26457031 649.04931641 -280.91601562 648.55957031 C-288.71372372 642.67629425 -296.00656474 636.40202532 -303.11328125 629.703125 C-305.38867137 627.57244846 -307.68800564 625.51709624 -310.0625 623.5 C-318.33708751 616.32985955 -325.92957104 608.34662672 -333 600 C-333.86882812 599.00871094 -334.73765625 598.01742187 -335.6328125 596.99609375 C-353.40970954 576.66736137 -368.83576011 554.58026104 -382 531 C-382.40138184 530.28763184 -382.80276367 529.57526367 -383.21630859 528.84130859 C-404.98916227 489.90885935 -418.44643888 446.1508109 -424 402 C-424.11859375 401.07058594 -424.2371875 400.14117188 -424.359375 399.18359375 C-435.13217909 310.05146465 -409.19542367 216.18472957 -354.52368164 145.0090332 C-352.39221569 142.3027374 -350.20705503 139.64479039 -348 137 C-347.55881836 136.46407227 -347.11763672 135.92814453 -346.66308594 135.37597656 C-336.81909752 123.42306755 -326.28786447 112.19946681 -315.38516235 101.20993042 C-313.98088139 99.79374902 -312.58058509 98.37361992 -311.18041992 96.95336914 C-305.0983316 90.86362558 -298.7267472 85.36163511 -292 80 C-290.92603257 79.10094051 -289.8559354 78.19719567 -288.79296875 77.28515625 C-235.0193908 31.41234387 -164.73792668 4.64601129 -95 -3 C-94.12013428 -3.1023999 -93.24026855 -3.2047998 -92.33374023 -3.31030273 C-61.94959495 -6.38043925 -30.07444646 -5.1578866 0 0 Z M-320 137 C-316.22083428 137 -315.57174416 136.05323562 -312.75 133.625 C-257.27841688 88.07906811 -179.90346705 68.73126969 -109.21362305 74.77099609 C-74.46213014 78.19909765 -41.32049446 86.40106932 -10 102 C-9.07638672 102.45632812 -8.15277344 102.91265625 -7.20117188 103.3828125 C20.50796032 117.17285301 46.50313587 134.55241461 68 157 C68.825 157.825 69.65 158.65 70.5 159.5 C71.325 160.325 72.15 161.15 73 162 C73.58265625 162.55945313 74.1653125 163.11890625 74.765625 163.6953125 C88.80995341 177.35259248 100.23244515 194.08587231 110 211 C110.65669678 212.12124268 110.65669678 212.12124268 111.32666016 213.26513672 C128.73590548 243.19961236 140.04902576 275.92878191 146 310 C146.15839355 310.90637207 146.31678711 311.81274414 146.47998047 312.74658203 C158.87608285 386.38930437 139.26793304 464.84772026 96.72119141 525.83300781 C94.2378359 529.29416563 91.64003399 532.65761734 89 536 C88.35804688 536.83402344 87.71609375 537.66804687 87.0546875 538.52734375 C82.49408066 544.37119826 77.578269 549.81852895 72.53515625 555.2421875 C70.55963751 557.39121096 68.66595636 559.56007074 66.8125 561.8125 C64.22688701 564.86689268 61.35473835 567.41999525 58.3046875 570.00390625 C55.6274902 572.32263137 53.07485341 574.755694 50.5 577.1875 C1.23461713 622.77800254 -67.28149324 646.50720654 -133.75 646.375 C-135.29837051 646.37418427 -135.29837051 646.37418427 -136.87802124 646.37335205 C-153.92563472 646.33219055 -170.24120516 645.32151676 -187 642 C-188.0729834 641.79632812 -189.1459668 641.59265625 -190.25146484 641.3828125 C-218.89413092 635.82329547 -245.22522565 625.37021221 -271 612 C-272.1454126 611.40856201 -272.1454126 611.40856201 -273.31396484 610.80517578 C-293.21073263 600.38543452 -311.55393501 586.20680106 -328 571 C-329.43279297 569.72189453 -329.43279297 569.72189453 -330.89453125 568.41796875 C-341.90286728 558.57925731 -351.38750404 547.99369807 -360 536 C-360.33 536.66 -360.66 537.32 -361 538 C-359.47306049 540.6698583 -357.89343503 543.19721591 -356.1875 545.75 C-355.68557129 546.51207764 -355.18364258 547.27415527 -354.66650391 548.05932617 C-349.95375448 555.16845164 -345.04469554 562.12371116 -340 569 C-339.26136719 570.01578125 -338.52273438 571.0315625 -337.76171875 572.078125 C-320.8002372 595.09512661 -300.75748567 617.84897424 -277.64160156 634.77734375 C-275.28786702 636.53039291 -273.00617578 638.36942351 -270.71606445 640.2043457 C-245.60032148 660.26591171 -216.9397879 676.35910085 -187 688 C-186.16742676 688.3295166 -185.33485352 688.6590332 -184.47705078 688.99853516 C-161.1395913 698.16948569 -136.73091546 704.02618815 -112 708 C-110.97583984 708.16516113 -109.95167969 708.33032227 -108.89648438 708.50048828 C-77.20953749 713.32740662 -42.60678359 713.40978641 -11 708 C-9.97390625 707.83371094 -8.9478125 707.66742187 -7.890625 707.49609375 C57.30288578 696.76301576 123.6804465 667.37806258 170.33984375 619.62939453 C172.07369446 617.92767105 173.88411309 616.36736345 175.75 614.8125 C180.82366783 610.4356028 185.22168726 605.44826073 189.68017578 600.46386719 C190.8535146 599.16247252 192.04835645 597.88053764 193.24609375 596.6015625 C211.10488227 577.39926878 225.29421176 554.8329877 238 532 C238.36287109 531.35933594 238.72574219 530.71867187 239.09960938 530.05859375 C261.90290626 489.75708218 274.25978398 442.80635046 279 397 C279.13148438 395.77925781 279.26296875 394.55851562 279.3984375 393.30078125 C285.14642953 326.42211725 269.79392982 257.43450952 237 199 C236.50628906 198.11957031 236.01257813 197.23914063 235.50390625 196.33203125 C228.1182346 183.27357439 220.08770235 170.93389828 211 159 C210.51257324 158.35562988 210.02514648 157.71125977 209.52294922 157.04736328 C204.07280199 149.87025288 198.38518109 143.03849964 192.25 136.43359375 C190.36053949 134.38995851 188.54658082 132.31195682 186.75 130.1875 C178.75744366 121.0262208 170.03003206 112.52960866 160.4921875 104.99609375 C158.17389348 103.13927832 155.99466439 101.20085545 153.8125 99.1875 C144.04681071 90.42117209 133.19402675 82.81311838 122 76 C120.73347844 75.19802873 119.46792914 74.39452087 118.203125 73.58984375 C83.13633257 51.46441593 44.95332984 35.96416245 4.25 28.0625 C3.51049103 27.91856812 2.77098206 27.77463623 2.00906372 27.62634277 C-94.52832205 9.08698622 -194.50514509 34.61850949 -320 137 Z M-171 90 C-171.97598145 90.19335938 -172.95196289 90.38671875 -173.95751953 90.5859375 C-197.83267019 95.49505939 -221.15037069 103.17851549 -243 114 C-243.74958984 114.37125 -244.49917969 114.7425 -245.27148438 115.125 C-269.5264164 127.28413041 -291.41689188 143.26605235 -311 162 C-311.64839844 162.6197168 -312.29679687 163.23943359 -312.96484375 163.87792969 C-321.5866152 172.17286815 -329.59394823 180.62285998 -336.70556641 190.25244141 C-338.02977635 192.04019976 -339.37811845 193.80767821 -340.73046875 195.57421875 C-351.05559069 209.19172525 -359.77750444 223.69362069 -367.10009766 239.12792969 C-367.94874108 240.89336588 -368.83838675 242.63892308 -369.73046875 244.3828125 C-381.99984081 269.03386208 -388.75527077 296.75381776 -392 324 C-392.14356934 325.16825317 -392.14356934 325.16825317 -392.29003906 326.36010742 C-393.27992615 335.5680087 -393.243652 344.81205868 -393.25 354.0625 C-393.25067474 354.9481665 -393.25134949 355.83383301 -393.25204468 356.74633789 C-393.2340244 371.69474449 -392.46079672 386.22775517 -390 401 C-389.77449463 402.42530029 -389.77449463 402.42530029 -389.54443359 403.87939453 C-382.82421441 444.9613575 -365.23610518 485.60031382 -339.42333984 518.19140625 C-338.03578865 519.95452448 -336.68041353 521.73806631 -335.33203125 523.53125 C-323.37207848 539.30468124 -309.47019211 553.67495495 -294 566 C-292.90213368 566.88906358 -291.80448347 567.77839406 -290.70703125 568.66796875 C-244.37001288 605.96652259 -186.63551933 626.20517787 -127.25 626.25 C-126.03361847 626.25101212 -126.03361847 626.25101212 -124.79266357 626.25204468 C-90.48508473 626.20699066 -56.55533364 619.64452017 -25 606 C-24.23719727 605.67660645 -23.47439453 605.35321289 -22.68847656 605.02001953 C8.6558876 591.68529896 35.91099907 572.29787775 60 548.3125 C60.72491638 547.59323334 60.72491638 547.59323334 61.46447754 546.85943604 C68.10318413 540.24706228 74.20948682 533.36465501 80 526 C80.45616699 525.42354736 80.91233398 524.84709473 81.38232422 524.25317383 C113.13726432 483.62327787 130.68801622 435.642724 137.875 384.875 C137.99528564 384.02977783 138.11557129 383.18455566 138.23950195 382.3137207 C139.02791108 376.19393148 139.11842003 370.1651515 139 364 C137.26356949 367.26519515 136.32218421 370.44007358 135.4543457 374.0390625 C127.76390704 405.87676557 112.27022358 434.55528094 90.11328125 458.640625 C88.67350132 460.24806877 87.28639357 461.90390148 85.94921875 463.59765625 C83.01885309 467.20922916 79.54483708 470.00813422 76 473 C75.12214844 473.76570313 74.24429687 474.53140625 73.33984375 475.3203125 C65.65192566 481.92178187 57.56667471 487.5978805 49 493 C47.948125 493.67804688 46.89625 494.35609375 45.8125 495.0546875 C29.48171327 505.02127058 10.61673136 511.76262633 -8 516 C-8.65693848 516.15017578 -9.31387695 516.30035156 -9.99072266 516.45507812 C-57.35232481 526.94590234 -107.38798829 520.13656762 -150 497 C-150.67256836 496.64292969 -151.34513672 496.28585937 -152.03808594 495.91796875 C-161.30860892 490.98878509 -169.78870773 485.58973455 -178 479 C-178.89976562 478.29230469 -179.79953125 477.58460938 -180.7265625 476.85546875 C-221.26932157 444.43294529 -249.05085829 398.55169716 -256.3125 346.8125 C-256.56150841 344.54375669 -256.79214725 342.27288333 -257 340 C-257.10957031 338.95585937 -257.21914063 337.91171875 -257.33203125 336.8359375 C-262.22835458 284.21678273 -245.03688667 233.79663317 -212.45214844 192.74804688 C-208.94144606 188.52198281 -205.004405 184.75456344 -201 181 C-200.19175781 180.19175781 -199.38351562 179.38351562 -198.55078125 178.55078125 C-183.98596979 163.98596979 -168.11368021 152.76765031 -150 143 C-149.38253906 142.66516602 -148.76507813 142.33033203 -148.12890625 141.98535156 C-102.59438624 117.79836446 -47.75365157 115.2108984 1 130 C18.21432295 135.80637782 34.30572595 143.28776205 49 154 C49.66 153.67 50.32 153.34 51 153 C34.49427072 138.82449132 16.35992185 125.99833273 -3 116 C-4.15411377 115.39260986 -4.15411377 115.39260986 -5.33154297 114.77294922 C-27.67550161 103.13202262 -52.19262648 94.56368745 -77 90 C-77.85513184 89.83918945 -78.71026367 89.67837891 -79.59130859 89.51269531 C-108.57614854 84.37184786 -142.14425538 84.22989638 -171 90 Z M-143 151 C-139.7447933 151.98725447 -136.91038722 152.06544076 -133.51953125 151.95703125 C-107.00999493 151.35408954 -86.35403001 156.98447749 -65 173 C-63.86304688 174.13888672 -63.86304688 174.13888672 -62.703125 175.30078125 C-61.1649976 177.23543149 -61.1649976 177.23543149 -59 177 C-58.73574219 177.58652344 -58.47148438 178.17304688 -58.19921875 178.77734375 C-56.95699286 181.07971031 -55.60368452 182.66474615 -53.8125 184.5625 C-35.50808975 205.11214977 -31.5750729 230.4517772 -33 257 C-35.44358918 279.09306917 -48.80246841 300.8112795 -65.5 315 C-87.94438888 332.21996758 -114.55410011 338.18740824 -142.56103516 334.67919922 C-146.87314593 333.88331064 -150.91550475 332.57214534 -155 331 C-156.03511719 330.62617188 -157.07023437 330.25234375 -158.13671875 329.8671875 C-182.58965879 320.41163322 -201.03569742 302.94204486 -211.8125 279.25 C-218.48242027 263.63589406 -219.72521475 247.82349012 -220 231 C-238.29815286 258.44722929 -239.32102907 304.48883619 -234 336 C-233.88172852 336.71865234 -233.76345703 337.43730469 -233.64160156 338.17773438 C-230.37633801 357.27080219 -224.41284673 376.14875082 -215.02978516 393.12890625 C-213.96572925 395.0622691 -212.94092229 397.01336979 -211.91796875 398.96875 C-194.0608143 432.54199138 -164.6201011 459.48064434 -130 475 C-129.31583008 475.30776367 -128.63166016 475.61552734 -127.92675781 475.93261719 C-112.14781357 482.93328925 -96.09567676 487.59315524 -79 490 C-78.02027222 490.14356934 -78.02027222 490.14356934 -77.02075195 490.29003906 C-69.76977851 491.23306276 -62.48954261 491.24351847 -55.1875 491.25 C-54.15863174 491.25101212 -54.15863174 491.25101212 -53.10897827 491.25204468 C-41.51254111 491.23399982 -30.35643078 490.43776786 -19 488 C-18.18031738 487.82839355 -17.36063477 487.65678711 -16.51611328 487.47998047 C14.22120729 480.8769738 42.95095975 466.59011866 65.49023438 444.47021484 C67.1023596 442.90032188 68.74503629 441.36676999 70.390625 439.83203125 C79.59436576 431.10713462 86.93083459 421.50190842 94 411 C94.39413086 410.42958984 94.78826172 409.85917969 95.19433594 409.27148438 C119.21388544 374.3616233 127.18732757 325.46103634 120.03515625 284.2109375 C113.5340032 250.26549289 99.69428833 219.20746108 77 193 C76.31679688 192.19433594 75.63359375 191.38867188 74.9296875 190.55859375 C44.74536886 155.86333451 0.27484867 133.5583732 -45.61230469 130.140625 C-78.21286057 128.22059226 -114.926812 133.20408699 -143 151 Z M-157 167 C-158.49853516 167.52787109 -158.49853516 167.52787109 -160.02734375 168.06640625 C-167.11346006 170.77396393 -173.06649756 174.295104 -179 179 C-179.83402344 179.65742188 -180.66804688 180.31484375 -181.52734375 180.9921875 C-197.17224014 194.15414964 -205.01531245 212.56726345 -206.875 232.6875 C-208.03528094 252.61562423 -201.04322327 270.55890037 -187.83984375 285.43359375 C-174.76147624 299.11167476 -157.00075563 307.73328296 -138 309 C-137.29359375 309.0515625 -136.5871875 309.103125 -135.859375 309.15625 C-115.96126954 309.9469032 -97.94289347 302.15850309 -83.01953125 289.46484375 C-69.55841593 276.85781298 -61.64408588 259.4017406 -60.76171875 240.94140625 C-60.20353209 219.06746656 -67.01284537 200.12155563 -82 183.9921875 C-85.94149947 179.95815283 -90.08984081 176.78027937 -95 174 C-96.08152344 173.38511719 -97.16304688 172.77023437 -98.27734375 172.13671875 C-115.5509578 162.71782437 -138.25766845 160.04494701 -157 167 Z M-220 229 C-219 231 -219 231 -219 231 Z " />
</svg>
